<?xml version="1.0" encoding="utf-8"?>
<!-- Svg Vector Icons : http://www.onlinewebfonts.com/icon -->
<!DOCTYPE svg PUBLIC "-//W3C//DTD SVG 1.1//EN" "http://www.w3.org/Graphics/SVG/1.1/DTD/svg11.dtd">
<svg version="1.1" xmlns="http://www.w3.org/2000/svg" xmlns:xlink="http://www.w3.org/1999/xlink" x="0px" y="0px" viewBox="0 0 1000 1000" enable-background="new 0 0 1000 1000" xml:space="preserve">
<metadata> Svg Vector Icons : http://www.onlinewebfonts.com/icon </metadata>
<g><path d="M500,119.1C239.7,119.1,10,337,10,500c0,163,229.7,380.9,490,380.9c260.3,0,490-217.8,490-380.9C990,337,760.3,119.1,500,119.1z M500,825.6C272,825.6,60.9,623.7,60.9,500C60.9,376.3,272,174.4,500,174.4c228,0,439.1,201.9,439.1,325.6S728,825.6,500,825.6z M503.1,329.4c-1,0-2.1,0-3.1,0c-1,0-2.1,0-3.1,0c-94.3,0-170.7,76.4-170.9,170.6c0.2,94.2,76.6,170.6,170.9,170.6c1,0,2.1,0,3.1,0c1,0,2.1,0,3.1,0c94.3,0,170.7-76.3,170.9-170.6C673.9,405.8,597.4,329.4,503.1,329.4z M503.8,617.2c-1.3,0-2.6-0.1-3.8-0.1c-1.3,0-2.5,0.1-3.8,0.1c-64.8,0-117.3-52.4-117.5-117.2c0.2-64.7,52.7-117.2,117.5-117.2c1.3,0,2.6,0.1,3.8,0.1c1.3,0,2.5-0.1,3.8-0.1c64.8,0,117.3,52.4,117.5,117.2C621.1,564.7,568.6,617.2,503.8,617.2z"/></g>
</svg>