<?xml version="1.0" encoding="utf-8"?>
<!-- Svg Vector Icons : http://www.onlinewebfonts.com/icon -->
<!DOCTYPE svg PUBLIC "-//W3C//DTD SVG 1.1//EN" "http://www.w3.org/Graphics/SVG/1.1/DTD/svg11.dtd">
<svg version="1.1" xmlns="http://www.w3.org/2000/svg" xmlns:xlink="http://www.w3.org/1999/xlink" x="0px" y="0px" viewBox="0 0 1000 1000" enable-background="new 0 0 1000 1000" xml:space="preserve">
<metadata> Svg Vector Icons : http://www.onlinewebfonts.com/icon </metadata>
<g><g><path d="M971.7,469.9L531.4,28c-11.8-11.9-27.8-18.5-44.5-18.5h-414C38.2,9.5,10,37.7,10,72.4v414c0,16.7,6.6,32.7,18.4,44.5l441.1,441.1c12.3,12.3,28.4,18.4,44.4,18.4c16.1,0,32.2-6.1,44.4-18.4l413.1-413.2C996.1,534.4,996.1,494.6,971.7,469.9L971.7,469.9z M821.2,536L535.6,821.5c-12,12-31.3,12-43.3,0L132.5,461.7V162.8c0-16.9,13.7-30.6,30.6-30.6h299l359.1,360.5C833.2,504.6,833.1,524,821.2,536L821.2,536z"/><path d="M438.8,346.7c0,50.8-41.2,92-91.9,92c-50.8,0-91.9-41.2-91.9-92c0-50.8,41.1-92,91.9-92C397.6,254.8,438.8,295.9,438.8,346.7z"/></g></g>
</svg>