<?xml version="1.0" encoding="utf-8"?>
<!-- Svg Vector Icons : http://www.onlinewebfonts.com/icon -->
<!DOCTYPE svg PUBLIC "-//W3C//DTD SVG 1.1//EN" "http://www.w3.org/Graphics/SVG/1.1/DTD/svg11.dtd">
<svg version="1.1" xmlns="http://www.w3.org/2000/svg" xmlns:xlink="http://www.w3.org/1999/xlink" x="0px" y="0px" viewBox="0 0 1000 1000" enable-background="new 0 0 1000 1000" xml:space="preserve">
<metadata> Svg Vector Icons : http://www.onlinewebfonts.com/icon </metadata>
<g><path d="M500,402c-54.4,0-98,44.5-98,98c0,54.4,43.6,98,98,98c54.4,0,98-44.5,98-98C598,445.6,554.4,402,500,402z M965.3,430.7L965.3,430.7C881.1,327.8,704.9,148.6,500,148.6c-203.9,0-381.1,179.2-465.3,281.1c0,0,0,0,0,1C19.9,449.5,10,474.3,10,500c0,25.7,8.9,50.5,24.7,69.3v1c84.1,103,261.3,281.1,465.3,281.1c204.9,0,381.1-179.2,465.3-282.1l0,0c14.8-18.8,24.7-42.6,24.7-69.3C990,474.3,981.1,449.5,965.3,430.7z M500,685.1c-102,0-185.1-83.2-185.1-185.1S398,314.9,500,314.9c102,0,185.1,83.2,185.1,185.1S602,685.1,500,685.1z"/></g>
</svg>