<?xml version="1.0" encoding="utf-8"?>
<!-- Svg Vector Icons : http://www.onlinewebfonts.com/icon -->
<!DOCTYPE svg PUBLIC "-//W3C//DTD SVG 1.1//EN" "http://www.w3.org/Graphics/SVG/1.1/DTD/svg11.dtd">
<svg version="1.1" xmlns="http://www.w3.org/2000/svg" xmlns:xlink="http://www.w3.org/1999/xlink" x="0px" y="0px" viewBox="0 0 1000 1000" enable-background="new 0 0 1000 1000" xml:space="preserve">
<metadata> Svg Vector Icons : http://www.onlinewebfonts.com/icon </metadata>
<g><path fill="currentColor" d="M609.3,498.3h37.9l-43.7,184.8l-56.8-259.9h-91.2l-66,259.9L340,423.3h-95.3l96.8,418.4h93.2L500,594.2l58.4,247.5h85.9l111-418.4H609.3V498.3z"/><path d="M874.6,200.9L737.8,64.1C708.1,34.3,649.3,10,607.2,10H147.8c-42.1,0-76.5,34.5-76.5,76.6v826.9c0,42.1,34.4,76.6,76.5,76.6h704.4c42.1,0,76.6-34.4,76.6-76.6l0-581.9C928.8,289.4,904.3,230.7,874.6,200.9z M683.7,98.6c4.2,2.9,7.8,5.9,10.9,8.9l136.7,136.7c3,3,5.9,6.7,8.9,10.8H683.7V98.6z M867.5,913.4c0,8.3-7.1,15.3-15.3,15.3H147.8c-8.3,0-15.3-7-15.3-15.3V86.6c0-8.3,7-15.3,15.3-15.3l459.4,0c4.7,0,9.8,0.5,15.3,1.6v243.4h243.3c1.1,5.5,1.7,10.7,1.7,15.3L867.5,913.4L867.5,913.4z"/></g>
</svg>