<?xml version="1.0" encoding="utf-8"?>
<!-- Svg Vector Icons : http://www.onlinewebfonts.com/icon -->
<!DOCTYPE svg PUBLIC "-//W3C//DTD SVG 1.1//EN" "http://www.w3.org/Graphics/SVG/1.1/DTD/svg11.dtd">
<svg version="1.1" xmlns="http://www.w3.org/2000/svg" xmlns:xlink="http://www.w3.org/1999/xlink" x="0px" y="0px" viewBox="0 0 1000 1000" enable-background="new 0 0 1000 1000" xml:space="preserve">
<metadata> Svg Vector Icons : http://www.onlinewebfonts.com/icon </metadata>
<g><path d="M990,898.1c0.3,39.9-25.7,73.6-61.3,86.2v5.6H71.3v-5.6C35.6,971.7,10,938.1,10,898.1c0-72.1,91.9-122.5,91.9-122.5l275.6-153.1v-63.7C304.3,516.4,255,437.5,255,346.9c0-16.3,0-75.6,0-91.9c0-135.3,109.7-245,245-245s245,109.7,245,245c0,16.3,0,75.6,0,91.9c0,90.6-49.3,169.6-122.5,212v63.7l275.6,153.1C898.1,775.6,989.5,828.4,990,898.1L990,898.1z"/></g>
</svg>