<?xml version="1.0" encoding="utf-8"?>
<!-- Svg Vector Icons : http://www.onlinewebfonts.com/icon -->
<!DOCTYPE svg PUBLIC "-//W3C//DTD SVG 1.1//EN" "http://www.w3.org/Graphics/SVG/1.1/DTD/svg11.dtd">
<svg version="1.1" xmlns="http://www.w3.org/2000/svg" xmlns:xlink="http://www.w3.org/1999/xlink" x="0px" y="0px" viewBox="0 0 1000 1000" enable-background="new 0 0 1000 1000" xml:space="preserve">
<metadata> Svg Vector Icons : http://www.onlinewebfonts.com/icon </metadata>
<g><path d="M990,500c0,270.6-219.4,490-490,490C229.4,990,10,770.6,10,500C10,229.4,229.4,10,500,10C770.6,10,990,229.4,990,500z M507,206c-64.4,0-125.9,56.2-125.9,88.8v95.9c0,36.1,16.3,103.7,54.4,134.2c11.9,9.5,18.2,24.3,16.8,39.5c-1.4,15.2-10.2,28.6-23.6,35.9l-146.7,79.5c-1,0.6-2.1,1.1-3.2,1.6c-3.6,1.6-8.1,4.4-11.4,6.8v40.6h479.8c0,0,2.4-51.3,1.1-52l-161.7-76.2c-13.4-7.3-22.2-20.9-23.5-36.1c-1.3-15.2,5.2-30.1,17.2-39.5c39.2-30.8,50.2-98.7,50.2-134.3v-95.9C630.7,261.4,572.6,206,507,206"/></g>
</svg>